<svg width="111" height="47" viewBox="0 0 111 47" fill="none" xmlns="http://www.w3.org/2000/svg">
<path d="M12.4961 24.28V38.232C12.4961 40.8773 11.6855 42.9253 10.0641 44.376C9.01879 45.336 7.67479 46.008 6.03212 46.392C5.26413 46.5413 4.46413 46.616 3.63213 46.616C3.35479 46.616 2.98146 46.5947 2.51213 46.552L0.944125 44.6V43.224C1.62679 43.3307 2.28813 43.384 2.92813 43.384C6.70413 43.384 8.59213 41.5493 8.59213 37.88V24.28H12.4961ZM21.9574 5.176C21.2534 4.64267 20.9014 3.928 20.9014 3.032C20.9014 2.30667 21.1467 1.69866 21.6374 1.208C22.1494 0.717332 22.7787 0.471998 23.5254 0.471998C24.208 0.471998 24.784 0.727998 25.2534 1.24C25.7227 1.73066 25.9574 2.33867 25.9574 3.064C25.9574 4.088 25.52 4.97333 24.6454 5.72C23.7707 6.44533 22.7147 6.808 21.4774 6.808C20.112 6.808 18.9707 6.31733 18.0534 5.336L16.5814 6.68L15.6534 6.584L15.1094 6.008L18.4054 3.16C19.1947 4.52533 20.24 5.208 21.5414 5.208C21.6907 5.208 21.8294 5.19733 21.9574 5.176ZM23.4934 4.472C24.0694 4.152 24.3787 3.69333 24.4214 3.096C24.4214 2.28533 24.1014 1.88 23.4614 1.88C22.8 1.88 22.4694 2.25333 22.4694 3C22.4694 3.768 22.8107 4.25867 23.4934 4.472ZM25.2214 8.856V12.632C25.2214 13.016 25.0934 13.368 24.8374 13.688C24.56 14.0293 24.1654 14.2 23.6534 14.2H21.9574L21.4454 13.656H21.4134C21.2427 13.8267 21.1147 13.9333 21.0294 13.976C20.816 14.1253 20.56 14.2 20.2614 14.2H18.0534C17.5627 14.2 17.168 14.0293 16.8694 13.688C16.6134 13.3893 16.4854 13.0373 16.4854 12.632V10.328L17.3494 9.624H18.2134V12.472C18.2134 12.5573 18.2347 12.6213 18.2774 12.664C18.3414 12.7493 18.4267 12.792 18.5334 12.792H19.6214C19.728 12.792 19.8134 12.76 19.8774 12.696C19.9414 12.632 19.9734 12.5467 19.9734 12.44V9.624H21.7334V12.792H23.1734C23.2587 12.792 23.3334 12.76 23.3974 12.696C23.4614 12.632 23.4934 12.5573 23.4934 12.472V8.856H25.2214ZM21.3591 17.24C21.9138 17.24 22.3938 17.4427 22.7991 17.848C23.2045 18.2533 23.4071 18.744 23.4071 19.32C23.4071 19.8747 23.2045 20.3547 22.7991 20.76C22.3938 21.1653 21.9138 21.368 21.3591 21.368C20.7831 21.368 20.2925 21.1653 19.8871 20.76C19.4818 20.3547 19.2791 19.8747 19.2791 19.32C19.2791 18.744 19.4818 18.2533 19.8871 17.848C20.2925 17.4427 20.7831 17.24 21.3591 17.24ZM19.2151 24.088C19.9405 23.96 20.7831 23.896 21.7431 23.896C24.1965 23.896 26.1805 24.6853 27.6951 26.264C29.0391 27.6933 29.7111 29.464 29.7111 31.576V34.648C29.7111 35.1387 29.7005 35.5013 29.6791 35.736H30.5111V39H30.0951L29.0391 37.688H28.9431C28.7725 37.88 28.5911 38.0613 28.3991 38.232C27.7591 38.744 27.0445 39 26.2551 39H15.9831V35.736H25.0071C25.5405 35.736 25.8071 35.4693 25.8071 34.936V31.96C25.8071 30.488 25.3591 29.304 24.4631 28.408C23.6311 27.576 22.4258 27.128 20.8471 27.064C20.1218 27.064 19.5778 27.1067 19.2151 27.192V24.088ZM36.2146 35.736V39H30.2946V35.736H36.2146ZM41.9021 35.736V39H35.9821V35.736H41.9021ZM47.5896 35.736V39H41.6696V35.736H47.5896ZM53.2771 35.736V39H47.3571V35.736H53.2771ZM58.9646 35.736V39H53.0446V35.736H58.9646ZM64.6521 35.736V39H58.7321V35.736H64.6521ZM70.3396 35.736V39H64.4196V35.736H70.3396ZM74.3311 24.824C76.3578 24.2053 78.2031 23.896 79.8671 23.896C82.4485 23.896 84.5285 24.7067 86.1071 26.328C87.5365 27.7787 88.2511 29.6133 88.2511 31.832V35.256V35.736H89.3071V39H88.6351L87.5791 37.688H87.5151C86.7898 38.5627 85.8831 39 84.7951 39H70.0751V35.736H83.5471C84.0805 35.736 84.3471 35.4693 84.3471 34.936V32.056C84.3471 30.6053 83.8565 29.4427 82.8751 28.568C81.9151 27.672 80.6458 27.224 79.0671 27.224C78.0218 27.224 76.4431 27.4587 74.3311 27.928V24.824ZM78.8111 41.336C79.3871 41.336 79.8778 41.5387 80.2831 41.944C80.6885 42.3493 80.8911 42.84 80.8911 43.416C80.8911 43.992 80.6885 44.4827 80.2831 44.888C79.8778 45.2933 79.3871 45.496 78.8111 45.496C78.2565 45.496 77.7765 45.2933 77.3711 44.888C76.9658 44.4827 76.7631 43.992 76.7631 43.416C76.7631 42.84 76.9658 42.3493 77.3711 41.944C77.7765 41.5387 78.2565 41.336 78.8111 41.336ZM94.9959 35.736V39H89.0759V35.736H94.9959ZM100.683 35.736V39H94.7634V35.736H100.683ZM103.523 17.24C104.099 17.24 104.59 17.4427 104.995 17.848C105.4 18.2533 105.603 18.744 105.603 19.32C105.603 19.8747 105.4 20.3547 104.995 20.76C104.59 21.1653 104.099 21.368 103.523 21.368C102.947 21.368 102.456 21.1653 102.051 20.76C101.646 20.3547 101.443 19.8747 101.443 19.32C101.443 18.744 101.646 18.2533 102.051 17.848C102.456 17.4427 102.947 17.24 103.523 17.24ZM108.387 17.24C108.963 17.24 109.454 17.4427 109.859 17.848C110.264 18.2533 110.467 18.744 110.467 19.32C110.467 19.8747 110.264 20.3547 109.859 20.76C109.454 21.1653 108.963 21.368 108.387 21.368C107.832 21.368 107.352 21.1653 106.947 20.76C106.542 20.3547 106.339 19.8747 106.339 19.32C106.339 18.744 106.542 18.2533 106.947 17.848C107.352 17.4427 107.832 17.24 108.387 17.24ZM110.051 24.28V35.48C110.051 36.312 109.774 37.08 109.219 37.784C108.515 38.5947 107.64 39 106.595 39H100.419V35.736H105.347C105.582 35.736 105.784 35.6507 105.955 35.48C106.104 35.3307 106.179 35.1493 106.179 34.936V24.28H110.051Z" fill="url(#paint0_linear_157_376)"/>
<defs>
<linearGradient id="paint0_linear_157_376" x1="1" y1="28" x2="113" y2="28" gradientUnits="userSpaceOnUse">
<stop stop-color="#4E1259"/>
<stop offset="1" stop-color="#7C00CA" stop-opacity="0.43"/>
</linearGradient>
</defs>
</svg>
